#!OML:ASF H:\Male1\Project 1\Capture day 1\Session 1\Male1.ASF
:FULLY-SPECIFIED
:DEGREES
418
root 21.4037 11.8097 -3.88709 229.027 85.4887 -155.543
lowerback 46.336 -2.52009 1.71492
upperback 18.1069 0.599943 -3.12186
thorax -0.871524 1.71019 -4.43014
lowerneck -5.63804 3.99526 9.79746
upperneck -8.12263 5.09957 -3.19723
head -1.28501 2.4744 -2.67952
rclavicle -4.21423e-014 -4.93747e-014
rhumerus 46.0496 -1.36999 -63.2755
rradius 43.4493
rwrist -38.0612
rhand -31.1054 6.99419
rfingers 7.12502
rthumb -4.38494 -22.9404
lclavicle -4.21423e-014 -4.93747e-014
lhumerus 46.0403 0.970408 52.0579
lradius 52.0275
lwrist 31.5578
lhand -29.5461 20.8281
lfingers 7.12502
lthumb -2.87911 50.7885
rfemur -87.9969 5.15533 27.2844
rtibia 92.3804
rfoot -27.6258 -26.8366
rtoes -28.5087
lfemur -89.3085 -3.74265 -16.6708
ltibia 92.9473
lfoot -26.3075 14.4293
ltoes -14.4206
419
root 21.4029 11.8318 -3.89072 231.12 85.4063 -153.543
lowerback 46.6876 -2.51177 1.69239
upperback 18.1196 0.631294 -2.99045
thorax -0.933209 1.71653 -4.2928
lowerneck -5.17526 4.06357 10.134
upperneck -8.79089 5.21374 -3.74886
head -1.55467 2.52191 -2.95449
rclavicle -1.59028e-015 -1.60037e-014
rhumerus 46.3033 -1.35233 -63.0368
rradius 43.8533
rwrist -38.2227
rhand -31.0629 6.759
rfingers 7.12502
rthumb -4.34383 -23.1765
lclavicle -1.59028e-015 -1.60037e-014
lhumerus 46.08 1.27141 51.9501
lradius 52.0993
lwrist 31.8635
lhand -29.7373 20.5121
lfingers 7.12502
lthumb -3.06372 50.4698
rfemur -87.8689 5.26552 27.2931
rtibia 92.3371
rfoot -29.1736 -25.2864
rtoes -24.0491
lfemur -89.3195 -4.1224 -16.1955
ltibia 92.8942
lfoot -26.3768 15.4014
ltoes -16.9637
420
root 21.4042 11.8347 -3.89269 234.734 85.3756 -150.034
lowerback 47.084 -2.42916 1.5978
upperback 18.0904 0.706332 -2.89609
thorax -1.04812 1.73694 -4.17701
lowerneck -5.27449 4.12285 9.74326
upperneck -8.79685 5.32641 -3.36523
head -1.55003 2.58718 -2.74724
rclavicle 1.43622e-014 -1.19597e-014
rhumerus 46.5519 -1.1606 -62.7113
rradius 44.0644
rwrist -38.2956
rhand -31.2846 6.79957
rfingers 7.12502
rthumb -4.55791 -23.1314
lclavicle 1.43622e-014 -1.19597e-014
lhumerus 46.1333 1.62392 51.8083
lradius 52.0817
lwrist 32.0818
lhand -29.9278 20.3626
lfingers 7.12502
lthumb -3.24771 50.3176
rfemur -87.6635 5.50919 27.429
rtibia 92.273
rfoot -30.8143 -23.654
rtoes -19.0804
lfemur -89.4884 -4.31263 -15.6746
ltibia 92.9438
lfoot -26.3569 16.082
ltoes -18.1945
421
root 21.4052 11.8392 -3.89681 237.954 85.4866 -146.948
lowerback 48.4228 -2.24455 1.3358
upperback 17.1451 0.824013 -2.84024
thorax -1.21261 1.77958 -3.97113
lowerneck -5.27929 4.18969 9.66146
upperneck -8.903 5.42773 -3.33354
head -1.5799 2.64078 -2.72205
rclavicle -4.91992e-015 -2.38973e-014
rhumerus 46.7372 -1.01975 -62.2299
rradius 44.2922
rwrist -38.4022
rhand -31.6024 6.92081
rfingers 7.12502
rthumb -4.86486 -23.0033
lclavicle -4.91992e-015 -2.38973e-014
lhumerus 46.3396 1.91198 51.7763
lradius 51.8346
lwrist 32.1281
lhand -30.0734 20.3497
lfingers 7.12502
lthumb -3.38836 50.3025
rfemur -87.5665 5.70152 27.545
rtibia 92.0847
rfoot -31.671 -22.6828
rtoes -15.6925
lfemur -89.6281 -4.4949 -15.2422
ltibia 92.9582
lfoot -26.4402 16.266
ltoes -16.5398
422
root 21.407 11.8657 -3.90258 240.358 85.584 -144.523
lowerback 48.8367 -2.10219 1.12707
upperback 17.1835 0.937802 -2.74184
thorax -1.21968 1.82216 -3.81146
lowerneck -5.29581 4.22329 9.70115
upperneck -9.09041 5.46705 -3.50295
head -1.63053 2.66085 -2.78998
rclavicle -3.28989e-014 7.25554e-015
rhumerus 46.888 -0.969953 -61.7463
rradius 44.7633
rwrist -38.6468
rhand -31.7569 6.99614
rfingers 7.12502
rthumb -5.01402 -22.9245
lclavicle -3.28989e-014 7.25554e-015
lhumerus 46.6547 2.22758 51.7942
lradius 51.4368
lwrist 32.1238
lhand -30.0965 20.1662
lfingers 7.12502
lthumb -3.41067 50.1187
rfemur -87.2781 5.73566 27.7247
rtibia 91.7569
rfoot -31.7602 -22.5776
rtoes -15.5881
lfemur -89.3912 -4.78488 -14.8341
ltibia 92.8454
lfoot -26.7139 16.3765
ltoes -14.4813
423
root 21.4116 11.8936 -3.90657 242.902 85.6414 -141.821
lowerback 49.3899 -2.01736 0.906424
upperback 17.2131 0.984355 -2.69372
thorax -1.25713 1.83922 -3.67813
lowerneck -5.30732 4.26184 9.67625
upperneck -9.29123 5.52312 -3.57194
head -1.68966 2.69017 -2.81244
rclavicle -4.49253e-014 1.50999e-014
rhumerus 47.0705 -0.850786 -61.5477
rradius 45.332
rwrist -38.9535
rhand -31.9153 7.26527
rfingers 7.12502
rthumb -5.16693 -22.6517
lclavicle -4.49253e-014 1.50999e-014
lhumerus 46.8517 2.67046 51.6583
lradius 51.1421
lwrist 32.3549
lhand -30.0406 19.6923
lfingers 7.12502
lthumb -3.35666 49.6456
rfemur -86.8651 5.76441 28.0033
rtibia 91.3998
rfoot -31.2139 -23.2761
rtoes -18.178
lfemur -88.9603 -5.00359 -14.5045
ltibia 92.7481
lfoot -26.9743 16.4398
ltoes -13.6919
424
root 21.4184 11.9109 -3.90889 246.381 85.6317 -138.229
lowerback 49.9476 -1.87835 0.689548
upperback 17.1547 1.07313 -2.60345
thorax -1.38711 1.86425 -3.52026
lowerneck -5.09668 4.2793 9.85187
upperneck -9.60109 5.55111 -3.8482
head -1.8156 2.69979 -2.95277
rclavicle -4.37326e-014 3.38555e-016
rhumerus 47.2296 -0.71321 -61.5259
rradius 45.7084
rwrist -39.1202
rhand -32.0927 7.68305
rfingers 7.12502
rthumb -5.33821 -22.2297
lclavicle -4.37326e-014 3.38555e-016
lhumerus 46.8216 3.0376 51.6169
lradius 51.0919
lwrist 32.618
lhand -29.9624 19.1949
lfingers 7.12502
lthumb -3.28119 49.1494
rfemur -86.5529 5.87436 28.3149
rtibia 91.0452
rfoot -30.3486 -24.2353
rtoes -20.6752
lfemur -88.6696 -5.0883 -14.1528
ltibia 92.7113
lfoot -27.1187 16.4793
ltoes -13.3743
